<?xml version="1.0" encoding="UTF-8"?>
<svg xmlns="http://www.w3.org/2000/svg" width="105" height="112" viewBox="0 0 105 112" fill="none">
  <path d="M0.160156 112V0.960083H89.2802V9.92008L56.1602 56.4801L90.5602 91.5201V88.0001C90.5602 82.5601 91.2002 75.9467 92.4802 68.1601L97.2802 72.4801C98.1335 86.0267 100.587 97.6001 104.64 107.2L102.72 110.4C100.8 109.973 98.8802 109.653 96.9602 109.44C95.1468 109.227 93.2268 109.12 91.2002 109.12C85.2268 109.12 78.9335 110.08 72.3202 112L67.5202 107.36C74.5602 102.987 80.4802 100.107 85.2802 98.7201L44.6402 57.7601L78.2402 10.5601H9.76016V112H0.160156Z" fill="black"></path>
</svg>
