<?xml version="1.0" encoding="UTF-8"?>
<svg xmlns="http://www.w3.org/2000/svg" width="124" height="123" viewBox="0 0 124 123" fill="none">
  <path d="M61.6002 122.96C53.1735 122.96 45.2268 121.36 37.7602 118.16C30.2935 114.96 23.7335 110.587 18.0802 105.04C12.5335 99.3868 8.16016 92.8268 4.96016 85.3601C1.76016 77.8934 0.160156 69.9468 0.160156 61.5201C0.160156 52.9867 1.76016 45.0401 4.96016 37.6801C8.16016 30.2134 12.5335 23.7067 18.0802 18.1601C23.7335 12.5067 30.2935 8.08008 37.7602 4.88008C45.2268 1.68008 53.1735 0.0800781 61.6002 0.0800781C70.1335 0.0800781 78.0802 1.68008 85.4402 4.88008C92.9068 8.08008 99.4135 12.5067 104.96 18.1601C110.613 23.7067 115.04 30.2134 118.24 37.6801C121.44 45.0401 123.04 52.9867 123.04 61.5201C123.04 69.9468 121.44 77.8934 118.24 85.3601C115.04 92.8268 110.613 99.3868 104.96 105.04C99.4135 110.587 92.9068 114.96 85.4402 118.16C78.0802 121.36 70.1335 122.96 61.6002 122.96ZM61.6002 115.12C68.9602 115.12 75.8935 113.733 82.4002 110.96C88.9068 108.187 94.6135 104.347 99.5202 99.4401C104.427 94.5334 108.267 88.8268 111.04 82.3201C113.813 75.8134 115.2 68.8801 115.2 61.5201C115.2 54.1601 113.813 47.2268 111.04 40.7201C108.267 34.2134 104.427 28.5067 99.5202 23.6001C94.6135 18.6934 88.9068 14.8534 82.4002 12.0801C75.8935 9.30675 68.9602 7.92008 61.6002 7.92008C54.2402 7.92008 47.3068 9.30675 40.8002 12.0801C34.2935 14.8534 28.5868 18.6934 23.6802 23.6001C18.7735 28.5067 14.9335 34.2134 12.1602 40.7201C9.38682 47.2268 8.00016 54.1601 8.00016 61.5201C8.00016 68.8801 9.38682 75.8134 12.1602 82.3201C14.9335 88.8268 18.7735 94.5334 23.6802 99.4401C28.5868 104.347 34.2935 108.187 40.8002 110.96C47.3068 113.733 54.2402 115.12 61.6002 115.12ZM61.6002 73.8401C58.1868 73.8401 55.2535 72.6134 52.8002 70.1601C50.4535 67.7067 49.2802 64.8267 49.2802 61.5201C49.2802 58.1068 50.4535 55.2268 52.8002 52.8801C55.2535 50.4268 58.1868 49.2001 61.6002 49.2001C65.0135 49.2001 67.8935 50.4268 70.2402 52.8801C72.6935 55.2268 73.9202 58.1068 73.9202 61.5201C73.9202 64.8267 72.6935 67.7067 70.2402 70.1601C67.8935 72.6134 65.0135 73.8401 61.6002 73.8401Z" fill="black"></path>
</svg>
